<svg data-v-fde0c5aa="" xmlns="http://www.w3.org/2000/svg" viewBox="0 0 300 300" class="iconAboveSlogan"><!----><defs data-v-fde0c5aa=""><!----></defs><rect data-v-fde0c5aa="" fill="#DEE5F3" x="0" y="0" width="300px" height="300px" class="logo-background-square"></rect><defs data-v-fde0c5aa=""><!----></defs><g data-v-fde0c5aa="" id="bcbf8bab-1dc6-4992-97e4-46fc9320d1c0" fill="#0C203C" transform="matrix(5.405405576881379,0,0,5.405405576881379,17.783783732809873,142.4495886336118)"><path d="M0.41 14.11L0.41 14.11L0.41 13.59L0.41 13.59Q0.83 13.57 1.06 13.52L1.06 13.52L1.06 13.52Q1.29 13.48 1.48 13.34L1.48 13.34L1.48 13.34Q1.67 13.20 1.67 12.95L1.67 12.95L1.67 12.95Q1.67 8.11 1.57 4.86L1.57 4.86L1.57 4.86Q1.55 4.55 1.35 4.45L1.35 4.45L1.35 4.45Q1.15 4.34 0.60 4.31L0.60 4.31L0.41 4.30L0.41 3.78L0.41 3.78Q1.16 3.84 2.35 3.84L2.35 3.84L2.35 3.84Q3.67 3.84 4.49 3.77L4.49 3.77L4.49 3.77Q5.32 3.70 5.61 3.70L5.61 3.70L5.91 3.70L5.91 3.70Q8.19 3.70 9.24 4.82L9.24 4.82L9.24 4.82Q10.29 5.94 10.29 8.39L10.29 8.39L10.29 8.39Q10.29 9.65 9.99 10.67L9.99 10.67L9.99 10.67Q9.69 11.69 9.21 12.33L9.21 12.33L9.21 12.33Q8.72 12.98 8.09 13.41L8.09 13.41L8.09 13.41Q7.45 13.85 6.83 14.02L6.83 14.02L6.83 14.02Q6.20 14.20 5.57 14.20L5.57 14.20L5.28 14.20L5.28 14.20Q4.93 14.20 3.89 14.13L3.89 14.13L3.89 14.13Q2.86 14.06 2.35 14.06L2.35 14.06L2.35 14.06Q1.16 14.06 0.41 14.11ZM3.02 12.15L3.02 12.15L3.02 12.15Q3.02 12.85 3.58 13.09L3.58 13.09L3.58 13.09Q4.13 13.33 5.80 13.33L5.80 13.33L5.80 13.33Q6.82 13.33 7.31 12.96L7.31 12.96L7.31 12.96Q7.80 12.59 8.29 11.70L8.29 11.70L8.29 11.70Q8.85 10.71 8.85 8.83L8.85 8.83L8.85 8.83Q8.85 6.54 7.95 5.47L7.95 5.47L7.95 5.47Q7.04 4.40 5.10 4.40L5.10 4.40L5.10 4.40Q3.75 4.40 3.29 4.55L3.29 4.55L3.14 4.70L3.14 4.70Q3.02 7.67 3.02 12.15ZM15.13 14.11L11.21 14.11L11.21 13.64L11.21 13.64Q11.55 13.59 11.66 13.59L11.66 13.59L11.66 13.59Q11.77 13.58 11.95 13.50L11.95 13.50L11.95 13.50Q12.12 13.43 12.15 13.36L12.15 13.36L12.15 13.36Q12.18 13.30 12.24 13.09L12.24 13.09L12.24 13.09Q12.29 12.88 12.29 12.67L12.29 12.67L12.29 12.67Q12.29 12.46 12.29 12.03L12.29 12.03L12.29 11.56L12.29 11.56Q12.29 8.75 12.19 8.26L12.19 8.26L12.19 8.26Q12.10 7.77 11.52 7.73L11.52 7.73L11.52 7.73Q11.44 7.71 11.38 7.71L11.38 7.71L11.35 7.18L11.35 7.18Q11.91 7.13 12.50 6.92L12.50 6.92L12.50 6.92Q13.09 6.71 13.24 6.71L13.24 6.71L13.24 6.71Q13.43 6.71 13.50 6.87L13.50 6.87L13.50 6.87Q13.57 7.03 13.57 7.45L13.57 7.45L13.58 7.98L13.58 7.98Q14.81 6.79 15.53 6.79L15.53 6.79L15.53 6.79Q16.04 6.79 16.24 6.92L16.24 6.92L16.24 6.92Q16.44 7.04 16.44 7.38L16.44 7.38L16.44 7.38Q16.44 7.49 16.21 8.89L16.21 8.89L15.71 8.89L15.71 8.89Q15.64 7.84 14.99 7.84L14.99 7.84L14.99 7.84Q14.63 7.84 14.11 8.17L14.11 8.17L14.11 8.17Q13.58 8.50 13.58 9.04L13.58 9.04L13.58 9.04Q13.58 9.44 13.57 11.01L13.57 11.01L13.57 11.01Q13.57 12.59 13.57 12.84L13.57 12.84L13.57 12.84Q13.57 13.27 13.82 13.40L13.82 13.40L13.82 13.40Q14.07 13.54 14.99 13.66L14.99 13.66L14.99 13.66Q15.09 13.68 15.13 13.68L15.13 13.68L15.13 14.11ZM24.71 14.11L20.20 14.11L20.20 13.59L20.20 13.59Q20.62 13.57 20.85 13.52L20.85 13.52L20.85 13.52Q21.08 13.48 21.27 13.34L21.27 13.34L21.27 13.34Q21.46 13.20 21.46 12.95L21.46 12.95L21.46 12.95Q21.46 12.94 21.47 12.66L21.47 12.66L21.47 12.66Q21.48 12.38 21.48 11.91L21.48 11.91L21.48 11.91Q21.48 11.45 21.48 10.88L21.48 10.88L21.48 10.88Q21.49 10.32 21.50 9.60L21.50 9.60L21.50 9.60Q21.50 8.88 21.50 8.22L21.50 8.22L21.50 8.22Q21.50 6.29 21.46 4.86L21.46 4.86L21.46 4.86Q21.45 4.55 21.25 4.45L21.25 4.45L21.25 4.45Q21.04 4.34 20.51 4.31L20.51 4.31L20.30 4.30L20.30 3.78L20.30 3.78Q21.08 3.84 22.25 3.84L22.25 3.84L22.25 3.84Q23.35 3.84 24.00 3.79L24.00 3.79L27.33 3.78L27.50 3.93L27.50 3.93Q27.47 4.05 27.30 5.21L27.30 5.21L27.30 5.21Q27.13 6.37 27.12 6.52L27.12 6.52L26.64 6.52L26.64 6.52Q26.38 5.10 26.33 5.01L26.33 5.01L26.33 5.01Q26.25 4.75 26.11 4.65L26.11 4.65L26.11 4.65Q26.00 4.62 25.59 4.56L25.59 4.56L25.59 4.56Q25.26 4.52 24.18 4.52L24.18 4.52L24.18 4.52Q23.53 4.52 23.28 4.61L23.28 4.61L23.28 4.61Q23.03 4.70 23.02 5.00L23.02 5.00L23.02 5.00Q22.96 8.08 22.96 8.33L22.96 8.33L22.96 8.33Q24.95 8.33 26.42 8.26L26.42 8.26L26.28 9.30L26.03 9.30L26.03 9.30Q25.77 9.11 25.13 9.03L25.13 9.03L25.13 9.03Q24.49 8.95 23.74 8.94L23.74 8.94L23.74 8.94Q23.00 8.93 22.96 8.93L22.96 8.93L22.96 8.93Q22.92 12.04 22.92 12.95L22.92 12.95L22.92 12.95Q22.92 13.20 23.10 13.34L23.10 13.34L23.10 13.34Q23.28 13.47 23.51 13.52L23.51 13.52L23.51 13.52Q23.74 13.57 24.18 13.59L24.18 13.59L24.71 13.64L24.71 14.11ZM27.69 10.47L27.69 10.47L27.69 10.47Q27.69 9.24 28.27 8.30L28.27 8.30L28.27 8.30Q28.64 7.71 29.58 7.23L29.58 7.23L29.58 7.23Q30.52 6.75 31.14 6.75L31.14 6.75L31.14 6.75Q32.38 6.75 33.26 7.55L33.26 7.55L33.26 7.55Q34.15 8.34 34.15 10.00L34.15 10.00L34.15 10.00Q34.15 11.72 33.53 12.66L33.53 12.66L33.53 12.66Q32.70 13.76 31.92 14.11L31.92 14.11L31.92 14.11Q31.39 14.35 30.65 14.35L30.65 14.35L30.65 14.35Q30.24 14.35 29.88 14.27L29.88 14.27L29.88 14.27Q29.51 14.20 29.10 13.94L29.10 13.94L29.10 13.94Q28.69 13.69 28.38 13.29L28.38 13.29L28.38 13.29Q28.08 12.88 27.89 12.16L27.89 12.16L27.89 12.16Q27.69 11.44 27.69 10.47ZM29.02 10.36L29.02 10.36L29.02 10.36Q29.02 12.04 29.60 12.70L29.60 12.70L29.60 12.70Q30.18 13.36 31.29 13.36L31.29 13.36L31.29 13.36Q31.71 13.36 31.91 13.29L31.91 13.29L31.91 13.29Q32.87 12.91 32.87 10.37L32.87 10.37L32.87 10.37Q32.87 9.18 32.56 8.63L32.56 8.63L32.56 8.63Q32.24 8.08 31.47 7.84L31.47 7.84L31.47 7.84Q31.08 7.74 30.72 7.74L30.72 7.74L30.72 7.74Q30.44 7.74 30.29 7.76L30.29 7.76L30.29 7.76Q30.14 7.77 29.90 7.84L29.90 7.84L29.90 7.84Q29.67 7.91 29.54 8.07L29.54 8.07L29.54 8.07Q29.41 8.23 29.27 8.51L29.27 8.51L29.27 8.51Q29.13 8.79 29.08 9.26L29.08 9.26L29.08 9.26Q29.02 9.73 29.02 10.36ZM35 7.74L34.96 7.21L34.96 7.21Q35.53 7.15 36.11 6.94L36.11 6.94L36.11 6.94Q36.69 6.73 36.85 6.73L36.85 6.73L36.85 6.73Q37.04 6.73 37.11 6.89L37.11 6.89L37.11 6.89Q37.18 7.06 37.18 7.48L37.18 7.48L37.18 7.67L37.18 7.67Q38.79 6.76 39.82 6.76L39.82 6.76L39.82 6.76Q40.63 6.76 40.98 7.26L40.98 7.26L40.98 7.26Q41.33 7.76 41.33 8.40L41.33 8.40L41.33 13.08L41.33 13.08Q41.33 13.38 41.46 13.50L41.46 13.50L41.46 13.50Q41.59 13.61 42.07 13.64L42.07 13.64L42.07 14.11L39.21 14.11L39.21 13.64L39.21 13.64Q39.75 13.59 39.88 13.47L39.88 13.47L39.88 13.47Q40.01 13.34 40.01 13.02L40.01 13.02L40.01 8.58L40.01 8.58Q40.01 8.23 39.80 8.04L39.80 8.04L39.80 8.04Q39.58 7.85 39.35 7.82L39.35 7.82L39.35 7.82Q39.12 7.78 38.78 7.78L38.78 7.78L38.78 7.78Q38.51 7.78 38.01 7.95L38.01 7.95L38.01 7.95Q37.51 8.11 37.23 8.30L37.23 8.30L37.23 8.30Q37.21 9.13 37.18 10.03L37.18 10.03L37.18 10.03Q37.16 10.93 37.14 11.49L37.14 11.49L37.14 11.49Q37.13 12.04 37.13 12.38L37.13 12.38L37.13 12.38Q37.13 13.23 37.27 13.42L37.27 13.42L37.27 13.42Q37.41 13.61 37.95 13.64L37.95 13.64L37.95 14.11L35.01 14.11L35.01 13.64L35.01 13.64Q35.31 13.59 35.43 13.55L35.43 13.55L35.43 13.55Q35.55 13.51 35.66 13.44L35.66 13.44L35.66 13.44Q35.78 13.37 35.82 13.17L35.82 13.17L35.82 13.17Q35.85 12.96 35.87 12.73L35.87 12.73L35.87 12.73Q35.88 12.50 35.88 12.01L35.88 12.01L35.88 12.01Q35.88 11.83 35.84 10.04L35.84 10.04L35.84 10.04Q35.80 8.26 35.78 8.20L35.78 8.20L35.78 8.20Q35.77 8.13 35.75 8.07L35.75 8.07L35.75 8.07Q35.73 8.01 35.69 7.97L35.69 7.97L35.69 7.97Q35.66 7.92 35.64 7.90L35.64 7.90L35.64 7.90Q35.62 7.87 35.56 7.84L35.56 7.84L35.56 7.84Q35.50 7.81 35.48 7.80L35.48 7.80L35.48 7.80Q35.45 7.80 35.37 7.78L35.37 7.78L35.37 7.78Q35.29 7.77 35.27 7.76L35.27 7.76L35.27 7.76Q35.24 7.76 35.14 7.75L35.14 7.75L35.14 7.75Q35.04 7.74 35 7.74L35 7.74ZM42.81 10.67L42.81 10.67L42.81 10.67Q42.81 9.25 43.12 8.53L43.12 8.53L43.12 8.53Q43.34 8.01 44.20 7.40L44.20 7.40L44.20 7.40Q45.05 6.79 45.79 6.79L45.79 6.79L45.79 6.79Q46.44 6.79 46.93 6.94L46.93 6.94L46.93 6.94Q47.42 7.10 47.70 7.40L47.70 7.40L47.70 7.40Q47.98 7.70 48.15 7.99L48.15 7.99L48.15 7.99Q48.33 8.27 48.39 8.70L48.39 8.70L48.39 8.70Q48.45 9.13 48.47 9.38L48.47 9.38L48.47 9.38Q48.50 9.63 48.50 10.00L48.50 10.00L48.50 10.00Q48.50 10.12 48.50 10.18L48.50 10.18L48.50 10.18Q48.05 10.46 47.03 10.46L47.03 10.46L44.16 10.46L44.16 10.46Q44.16 10.91 44.17 11.15L44.17 11.15L44.17 11.15Q44.18 11.40 44.23 11.78L44.23 11.78L44.23 11.78Q44.27 12.17 44.39 12.38L44.39 12.38L44.39 12.38Q44.51 12.60 44.70 12.82L44.70 12.82L44.70 12.82Q44.90 13.05 45.22 13.15L45.22 13.15L45.22 13.15Q45.54 13.24 45.98 13.24L45.98 13.24L45.98 13.24Q47.19 13.24 48.20 12.25L48.20 12.25L48.51 12.57L48.51 12.57Q48.45 12.63 48.24 12.85L48.24 12.85L48.24 12.85Q48.03 13.06 47.96 13.13L47.96 13.13L47.96 13.13Q47.89 13.20 47.70 13.39L47.70 13.39L47.70 13.39Q47.50 13.58 47.40 13.65L47.40 13.65L47.40 13.65Q47.29 13.72 47.10 13.86L47.10 13.86L47.10 13.86Q46.91 14 46.78 14.06L46.78 14.06L46.78 14.06Q46.65 14.11 46.46 14.19L46.46 14.19L46.46 14.19Q46.27 14.27 46.08 14.29L46.08 14.29L46.08 14.29Q45.89 14.32 45.70 14.32L45.70 14.32L45.70 14.32Q44.86 14.32 44.26 13.99L44.26 13.99L44.26 13.99Q43.67 13.66 43.36 13.10L43.36 13.10L43.36 13.10Q43.06 12.54 42.94 11.95L42.94 11.95L42.94 11.95Q42.81 11.35 42.81 10.67ZM44.18 9.83L44.18 9.83L44.98 9.83L44.98 9.83Q46.84 9.83 47.19 9.58L47.19 9.58L47.19 9.58Q47.19 9.28 47.14 9.00L47.14 9.00L47.14 9.00Q47.08 8.72 46.94 8.41L46.94 8.41L46.94 8.41Q46.80 8.09 46.49 7.90L46.49 7.90L46.49 7.90Q46.19 7.70 45.74 7.70L45.74 7.70L45.74 7.70Q44.79 7.70 44.48 8.17L44.48 8.17L44.48 8.17Q44.18 8.64 44.18 9.83Z"></path></g><defs data-v-fde0c5aa=""><linearGradient data-v-fde0c5aa="" gradientTransform="rotate(25)" id="39df9ec1-6bcc-4ab3-a3de-ff729c912920" x1="0%" y1="0%" x2="100%" y2="0%"><stop data-v-fde0c5aa="" offset="0%" stop-color="#288B58" stop-opacity="1"></stop><stop data-v-fde0c5aa="" offset="100%" stop-color="#1522F1" stop-opacity="1"></stop></linearGradient></defs><g data-v-fde0c5aa="" id="d5453526-8751-4e9d-b574-a03faed99231" stroke="none" fill="url(#39df9ec1-6bcc-4ab3-a3de-ff729c912920)" transform="matrix(0.9978673466941076,0,0,0.9978673466941076,100.60578378848673,51.70181387594295)"><path d="M34.571 16.321h5.716v5.716h-5.716zM34.571 28.368h5.716v5.716h-5.716zM34.571 40.416h5.716v5.716h-5.716zM34.571 52.464h5.716v5.716h-5.716zM80.349 16.321h5.716v5.716h-5.716zM80.349 28.368h5.716v5.716h-5.716zM80.349 40.416h5.716v5.716h-5.716zM80.349 52.464h5.716v5.716h-5.716zM52.324 50.356a1.12 1.12 0 0 1-1.118-1.117V26.271a1.117 1.117 0 0 1 1.702-.951l18.704 11.483c.332.203.532.563.532.951 0 .389-.201.749-.532.951L52.909 50.19a1.109 1.109 0 0 1-.585.166zm1.118-22.088v18.974l15.45-9.488-15.45-9.486z"></path><path d="M81.978 8.301c4.025 0 7.3 3.275 7.3 7.3V59.3c0 4.025-3.275 7.3-7.3 7.3H38.279c-4.025 0-7.3-3.275-7.3-7.3V15.601c0-4.025 3.275-7.3 7.3-7.3h43.699m0-2.235H38.279a9.535 9.535 0 0 0-9.535 9.535V59.3a9.535 9.535 0 0 0 9.535 9.535h43.699a9.535 9.535 0 0 0 9.535-9.535V15.601c-.001-5.266-4.27-9.535-9.535-9.535z"></path><path d="M74.63 71.069h-2.299l.225.924a7.487 7.487 0 0 1-.884 5.706 7.503 7.503 0 0 1-4.661 3.409l-38.573 9.386a7.502 7.502 0 0 1-5.706-.886 7.5 7.5 0 0 1-3.409-4.661L9.94 46.377a7.492 7.492 0 0 1 .886-5.706 7.5 7.5 0 0 1 4.661-3.409L26.51 34.58v-2.3l-11.551 2.809a9.724 9.724 0 0 0-6.043 4.419 9.72 9.72 0 0 0-1.148 7.396l9.386 38.57a9.707 9.707 0 0 0 4.417 6.043 9.725 9.725 0 0 0 5.065 1.429c.775 0 1.558-.094 2.331-.284l38.573-9.386a9.693 9.693 0 0 0 6.04-4.417 9.708 9.708 0 0 0 1.148-7.396l-.098-.394z"></path></g><defs data-v-fde0c5aa=""><!----></defs><g data-v-fde0c5aa="" id="3d944b8e-d08f-40a0-8b3f-19358449ba5a" fill="#0C203C" transform="matrix(1.198819596764979,0,0,1.198819596764979,51.73275540376445,223.20786690877324)"><path d="M0.64 15.68L0.64 5.88L2.88 5.88L4.20 15.18L4.37 15.18L5.68 5.88L7.92 5.88L7.92 15.68L6.83 15.68L6.83 6.38L6.66 6.38L5.35 15.68L3.22 15.68L1.90 6.38L1.74 6.38L1.74 15.68L0.64 15.68ZM23.34 12.12L23.34 12.29L23.34 12.29Q23.34 13.16 23.05 13.82L23.05 13.82L23.05 13.82Q22.76 14.49 22.29 14.95L22.29 14.95L22.29 14.95Q21.81 15.40 21.18 15.64L21.18 15.64L21.18 15.64Q20.54 15.88 19.85 15.88L19.85 15.88L19.85 15.88Q19.15 15.88 18.52 15.64L18.52 15.64L18.52 15.64Q17.89 15.40 17.42 14.95L17.42 14.95L17.42 14.95Q16.94 14.49 16.65 13.82L16.65 13.82L16.65 13.82Q16.37 13.16 16.37 12.29L16.37 12.29L16.37 12.12L16.37 12.12Q16.37 11.27 16.65 10.61L16.65 10.61L16.65 10.61Q16.94 9.94 17.42 9.48L17.42 9.48L17.42 9.48Q17.91 9.02 18.54 8.78L18.54 8.78L18.54 8.78Q19.17 8.54 19.85 8.54L19.85 8.54L19.85 8.54Q20.54 8.54 21.17 8.78L21.17 8.78L21.17 8.78Q21.80 9.02 22.28 9.48L22.28 9.48L22.28 9.48Q22.76 9.94 23.05 10.61L23.05 10.61L23.05 10.61Q23.34 11.27 23.34 12.12L23.34 12.12ZM19.85 14.84L19.85 14.84L19.85 14.84Q20.36 14.84 20.78 14.66L20.78 14.66L20.78 14.66Q21.21 14.49 21.53 14.15L21.53 14.15L21.53 14.15Q21.85 13.82 22.04 13.35L22.04 13.35L22.04 13.35Q22.22 12.88 22.22 12.29L22.22 12.29L22.22 12.12L22.22 12.12Q22.22 11.56 22.04 11.09L22.04 11.09L22.04 11.09Q21.85 10.63 21.53 10.29L21.53 10.29L21.53 10.29Q21.21 9.95 20.78 9.77L20.78 9.77L20.78 9.77Q20.34 9.58 19.85 9.58L19.85 9.58L19.85 9.58Q19.36 9.58 18.93 9.77L18.93 9.77L18.93 9.77Q18.49 9.95 18.17 10.29L18.17 10.29L18.17 10.29Q17.85 10.63 17.67 11.09L17.67 11.09L17.67 11.09Q17.49 11.56 17.49 12.12L17.49 12.12L17.49 12.29L17.49 12.29Q17.49 12.88 17.67 13.35L17.67 13.35L17.67 13.35Q17.85 13.82 18.17 14.15L18.17 14.15L18.17 14.15Q18.49 14.49 18.92 14.66L18.92 14.66L18.92 14.66Q19.35 14.84 19.85 14.84ZM38.91 8.74L36.48 15.68L34.33 15.68L31.91 8.74L33.19 8.74L35.32 15.18L35.49 15.18L37.62 8.74L38.91 8.74ZM50.08 6.66L50.08 6.66L50.08 6.66Q50.08 6.26 50.37 5.97L50.37 5.97L50.37 5.97Q50.65 5.68 51.06 5.68L51.06 5.68L51.06 5.68Q51.46 5.68 51.75 5.97L51.75 5.97L51.75 5.97Q52.04 6.26 52.04 6.66L52.04 6.66L52.04 6.66Q52.04 7.07 51.75 7.36L51.75 7.36L51.75 7.36Q51.46 7.64 51.06 7.64L51.06 7.64L51.06 7.64Q50.65 7.64 50.37 7.36L50.37 7.36L50.37 7.36Q50.08 7.07 50.08 6.66ZM48.09 15.68L48.09 14.67L50.53 14.67L50.53 9.74L48.34 9.74L48.34 8.74L51.62 8.74L51.62 14.67L53.89 14.67L53.89 15.68L48.09 15.68ZM69.89 12.54L64.29 12.54L64.29 12.54Q64.33 13.58 64.93 14.21L64.93 14.21L64.93 14.21Q65.53 14.84 66.61 14.84L66.61 14.84L66.61 14.84Q67.10 14.84 67.47 14.73L67.47 14.73L67.47 14.73Q67.83 14.62 68.09 14.42L68.09 14.42L68.09 14.42Q68.35 14.22 68.51 13.96L68.51 13.96L68.51 13.96Q68.67 13.71 68.77 13.41L68.77 13.41L69.80 13.69L69.80 13.69Q69.51 14.66 68.72 15.27L68.72 15.27L68.72 15.27Q67.93 15.88 66.58 15.88L66.58 15.88L66.58 15.88Q65.84 15.88 65.22 15.62L65.22 15.62L65.22 15.62Q64.60 15.36 64.15 14.88L64.15 14.88L64.15 14.88Q63.70 14.41 63.45 13.75L63.45 13.75L63.45 13.75Q63.20 13.09 63.20 12.29L63.20 12.29L63.20 11.96L63.20 11.96Q63.20 11.23 63.45 10.60L63.45 10.60L63.45 10.60Q63.71 9.97 64.18 9.51L64.18 9.51L64.18 9.51Q64.64 9.06 65.26 8.80L65.26 8.80L65.26 8.80Q65.88 8.54 66.61 8.54L66.61 8.54L66.61 8.54Q67.47 8.54 68.09 8.86L68.09 8.86L68.09 8.86Q68.71 9.17 69.11 9.63L69.11 9.63L69.11 9.63Q69.51 10.09 69.70 10.64L69.70 10.64L69.70 10.64Q69.89 11.19 69.89 11.65L69.89 11.65L69.89 12.54ZM66.61 9.58L66.61 9.58L66.61 9.58Q66.15 9.58 65.75 9.72L65.75 9.72L65.75 9.72Q65.35 9.87 65.05 10.14L65.05 10.14L65.05 10.14Q64.75 10.40 64.56 10.76L64.56 10.76L64.56 10.76Q64.37 11.12 64.32 11.54L64.32 11.54L68.80 11.54L68.80 11.54Q68.77 11.09 68.58 10.72L68.58 10.72L68.58 10.72Q68.39 10.36 68.09 10.11L68.09 10.11L68.09 10.11Q67.79 9.86 67.40 9.72L67.40 9.72L67.40 9.72Q67.02 9.58 66.61 9.58ZM100.00 9.21L100.00 8.71L100.00 8.71Q100.00 8.23 99.81 7.87L99.81 7.87L99.81 7.87Q99.62 7.50 99.30 7.27L99.30 7.27L99.30 7.27Q98.98 7.03 98.56 6.90L98.56 6.90L98.56 6.90Q98.14 6.78 97.68 6.78L97.68 6.78L97.68 6.78Q97.27 6.78 96.91 6.88L96.91 6.88L96.91 6.88Q96.54 6.99 96.26 7.18L96.26 7.18L96.26 7.18Q95.97 7.38 95.80 7.66L95.80 7.66L95.80 7.66Q95.63 7.95 95.63 8.33L95.63 8.33L95.63 8.41L95.63 8.41Q95.63 8.82 95.80 9.11L95.80 9.11L95.80 9.11Q95.97 9.39 96.30 9.60L96.30 9.60L96.30 9.60Q96.63 9.80 97.12 9.93L97.12 9.93L97.12 9.93Q97.61 10.07 98.27 10.16L98.27 10.16L98.27 10.16Q99.81 10.40 100.53 11.07L100.53 11.07L100.53 11.07Q101.26 11.73 101.26 12.85L101.26 12.85L101.26 13.02L101.26 13.02Q101.26 13.65 101.05 14.17L101.05 14.17L101.05 14.17Q100.83 14.70 100.40 15.08L100.40 15.08L100.40 15.08Q99.97 15.46 99.34 15.67L99.34 15.67L99.34 15.67Q98.71 15.88 97.89 15.88L97.89 15.88L97.89 15.88Q96.95 15.88 96.23 15.60L96.23 15.60L96.23 15.60Q95.51 15.33 95.03 14.85L95.03 14.85L95.03 14.85Q94.54 14.36 94.29 13.71L94.29 13.71L94.29 13.71Q94.04 13.06 94.04 12.29L94.04 12.29L94.04 11.87L95.21 11.87L95.21 12.21L95.21 12.21Q95.21 13.50 95.92 14.14L95.92 14.14L95.92 14.14Q96.63 14.78 97.89 14.78L97.89 14.78L97.89 14.78Q98.98 14.78 99.53 14.30L99.53 14.30L99.53 14.30Q100.09 13.82 100.09 13.02L100.09 13.02L100.09 12.94L100.09 12.94Q100.09 12.17 99.52 11.76L99.52 11.76L99.52 11.76Q98.95 11.35 97.68 11.17L97.68 11.17L97.68 11.17Q96.94 11.07 96.34 10.87L96.34 10.87L96.34 10.87Q95.75 10.67 95.33 10.34L95.33 10.34L95.33 10.34Q94.91 10.01 94.68 9.55L94.68 9.55L94.68 9.55Q94.46 9.09 94.46 8.46L94.46 8.46L94.46 8.29L94.46 8.29Q94.46 7.71 94.70 7.24L94.70 7.24L94.70 7.24Q94.93 6.76 95.36 6.41L95.36 6.41L95.36 6.41Q95.79 6.06 96.38 5.87L96.38 5.87L96.38 5.87Q96.98 5.68 97.69 5.68L97.69 5.68L97.69 5.68Q98.52 5.68 99.17 5.92L99.17 5.92L99.17 5.92Q99.82 6.16 100.27 6.56L100.27 6.56L100.27 6.56Q100.72 6.96 100.95 7.50L100.95 7.50L100.95 7.50Q101.18 8.04 101.18 8.62L101.18 8.62L101.18 9.21L100.00 9.21ZM109.96 9.74L109.96 8.74L112.14 8.74L112.14 5.88L113.23 5.88L113.23 8.74L115.92 8.74L115.92 9.74L113.23 9.74L113.23 14.25L113.23 14.25Q113.23 14.67 113.61 14.67L113.61 14.67L115.58 14.67L115.58 15.68L113.22 15.68L113.22 15.68Q112.74 15.68 112.44 15.37L112.44 15.37L112.44 15.37Q112.14 15.06 112.14 14.59L112.14 14.59L112.14 9.74L109.96 9.74ZM132.31 12.12L132.31 12.29L132.31 12.29Q132.31 13.16 132.03 13.82L132.03 13.82L132.03 13.82Q131.74 14.49 131.26 14.95L131.26 14.95L131.26 14.95Q130.79 15.40 130.15 15.64L130.15 15.64L130.15 15.64Q129.51 15.88 128.83 15.88L128.83 15.88L128.83 15.88Q128.13 15.88 127.50 15.64L127.50 15.64L127.50 15.64Q126.87 15.40 126.39 14.95L126.39 14.95L126.39 14.95Q125.92 14.49 125.63 13.82L125.63 13.82L125.63 13.82Q125.34 13.16 125.34 12.29L125.34 12.29L125.34 12.12L125.34 12.12Q125.34 11.27 125.63 10.61L125.63 10.61L125.63 10.61Q125.92 9.94 126.40 9.48L126.40 9.48L126.40 9.48Q126.88 9.02 127.51 8.78L127.51 8.78L127.51 8.78Q128.14 8.54 128.83 8.54L128.83 8.54L128.83 8.54Q129.51 8.54 130.14 8.78L130.14 8.78L130.14 8.78Q130.77 9.02 131.26 9.48L131.26 9.48L131.26 9.48Q131.74 9.94 132.03 10.61L132.03 10.61L132.03 10.61Q132.31 11.27 132.31 12.12L132.31 12.12ZM128.83 14.84L128.83 14.84L128.83 14.84Q129.33 14.84 129.76 14.66L129.76 14.66L129.76 14.66Q130.19 14.49 130.51 14.15L130.51 14.15L130.51 14.15Q130.83 13.82 131.01 13.35L131.01 13.35L131.01 13.35Q131.19 12.88 131.19 12.29L131.19 12.29L131.19 12.12L131.19 12.12Q131.19 11.56 131.01 11.09L131.01 11.09L131.01 11.09Q130.83 10.63 130.51 10.29L130.51 10.29L130.51 10.29Q130.19 9.95 129.75 9.77L129.75 9.77L129.75 9.77Q129.32 9.58 128.83 9.58L128.83 9.58L128.83 9.58Q128.34 9.58 127.90 9.77L127.90 9.77L127.90 9.77Q127.47 9.95 127.15 10.29L127.15 10.29L127.15 10.29Q126.83 10.63 126.64 11.09L126.64 11.09L126.64 11.09Q126.46 11.56 126.46 12.12L126.46 12.12L126.46 12.29L126.46 12.29Q126.46 12.88 126.64 13.35L126.64 13.35L126.64 13.35Q126.83 13.82 127.15 14.15L127.15 14.15L127.15 14.15Q127.47 14.49 127.90 14.66L127.90 14.66L127.90 14.66Q128.32 14.84 128.83 14.84ZM140.94 9.74L140.94 8.74L143.46 8.74L143.46 9.66L143.63 9.66L143.63 9.66Q143.89 9.09 144.38 8.81L144.38 8.81L144.38 8.81Q144.87 8.54 145.50 8.54L145.50 8.54L145.50 8.54Q146.55 8.54 147.20 9.23L147.20 9.23L147.20 9.23Q147.84 9.91 147.88 11.23L147.88 11.23L146.73 11.40L146.73 11.40Q146.73 10.43 146.27 10.00L146.27 10.00L146.27 10.00Q145.81 9.58 145.14 9.58L145.14 9.58L145.14 9.58Q144.70 9.58 144.39 9.74L144.39 9.74L144.39 9.74Q144.07 9.91 143.86 10.21L143.86 10.21L143.86 10.21Q143.65 10.50 143.56 10.89L143.56 10.89L143.56 10.89Q143.46 11.28 143.46 11.73L143.46 11.73L143.46 14.67L145.22 14.67L145.22 15.68L140.77 15.68L140.77 14.67L142.37 14.67L142.37 9.74L140.94 9.74ZM163.30 12.54L157.70 12.54L157.70 12.54Q157.74 13.58 158.34 14.21L158.34 14.21L158.34 14.21Q158.94 14.84 160.02 14.84L160.02 14.84L160.02 14.84Q160.51 14.84 160.87 14.73L160.87 14.73L160.87 14.73Q161.24 14.62 161.50 14.42L161.50 14.42L161.50 14.42Q161.76 14.22 161.92 13.96L161.92 13.96L161.92 13.96Q162.08 13.71 162.18 13.41L162.18 13.41L163.21 13.69L163.21 13.69Q162.92 14.66 162.13 15.27L162.13 15.27L162.13 15.27Q161.34 15.88 159.99 15.88L159.99 15.88L159.99 15.88Q159.25 15.88 158.63 15.62L158.63 15.62L158.63 15.62Q158.00 15.36 157.56 14.88L157.56 14.88L157.56 14.88Q157.11 14.41 156.86 13.75L156.86 13.75L156.86 13.75Q156.60 13.09 156.60 12.29L156.60 12.29L156.60 11.96L156.60 11.96Q156.60 11.23 156.86 10.60L156.86 10.60L156.86 10.60Q157.12 9.97 157.58 9.51L157.58 9.51L157.58 9.51Q158.05 9.06 158.67 8.80L158.67 8.80L158.67 8.80Q159.29 8.54 160.02 8.54L160.02 8.54L160.02 8.54Q160.87 8.54 161.50 8.86L161.50 8.86L161.50 8.86Q162.12 9.17 162.52 9.63L162.52 9.63L162.52 9.63Q162.92 10.09 163.11 10.64L163.11 10.64L163.11 10.64Q163.30 11.19 163.30 11.65L163.30 11.65L163.30 12.54ZM160.02 9.58L160.02 9.58L160.02 9.58Q159.56 9.58 159.16 9.72L159.16 9.72L159.16 9.72Q158.76 9.87 158.46 10.14L158.46 10.14L158.46 10.14Q158.16 10.40 157.97 10.76L157.97 10.76L157.97 10.76Q157.78 11.12 157.72 11.54L157.72 11.54L162.20 11.54L162.20 11.54Q162.18 11.09 161.99 10.72L161.99 10.72L161.99 10.72Q161.80 10.36 161.50 10.11L161.50 10.11L161.50 10.11Q161.20 9.86 160.81 9.72L160.81 9.72L160.81 9.72Q160.43 9.58 160.02 9.58Z"></path></g></svg>